<?xml version="1.0" encoding="UTF-8"?>
<svg id="LOGO" xmlns="http://www.w3.org/2000/svg" viewBox="0 0 792 1224">
  <defs>
    <style>
      .cls-1 {
        fill: #8a613c;
      }

      .cls-1, .cls-2 {
        stroke-width: 0px;
      }

      .cls-2 {
        fill: #d4a12a;
      }
    </style>
  </defs>
  <path class="cls-1" d="M338.73,273.65c-10.89-2.72-22.33-2.14-33.03,1.27-19.94,6.34-44.59,16.78-69.48,34.5-92,65.53-109.25,175.2-115.81,216.91-2.3,14.61-25.63,178.71,76.29,303.91,17.85,21.93,77.92,95.72,136.27,82.57,18.61-4.19,30.8-15.82,36.41-21.17,45.65-43.57,33.6-122.3,26.86-166.29-4.44-29.01-11.61-51.6-19.19-75.47-14.99-47.24-23.81-57.13-34.42-87.32-9.64-27.41-40.57-115.39-9.26-196.46,14.25-36.91,37.02-61.03,25.77-79.49-4.22-6.92-11.86-10.82-20.43-12.96Z"/>
  <path class="cls-2" d="M434.75,931.83c10.89,2.72,22.33,2.14,33.03-1.27,19.94-6.34,44.59-16.78,69.48-34.5,92-65.53,109.25-175.2,115.81-216.91,2.3-14.61,25.63-178.71-76.29-303.91-17.85-21.93-77.92-95.72-136.27-82.57-18.61,4.19-30.8,15.82-36.41,21.17-45.65,43.57-33.6,122.3-26.86,166.29,4.44,29.01,11.61,51.6,19.19,75.47,14.99,47.24,23.81,57.13,34.42,87.32,9.64,27.41,40.57,115.39,9.26,196.46-14.25,36.91-37.02,61.03-25.77,79.49,4.22,6.92,11.86,10.82,20.43,12.96Z"/>
</svg>